<?xml version="1.0" standalone="no"?>
<!DOCTYPE svg PUBLIC "-//W3C//DTD SVG 20010904//EN"
 "http://www.w3.org/TR/2001/REC-SVG-20010904/DTD/svg10.dtd">
<svg version="1.0" xmlns="http://www.w3.org/2000/svg"
 width="700.000000pt" height="700.000000pt" viewBox="0 0 700.000000 700.000000"
 preserveAspectRatio="xMidYMid meet">
<metadata>
Created by potrace 1.14, written by Peter Selinger 2001-2017
</metadata>
<g transform="translate(0.000000,700.000000) scale(0.100000,-0.100000)"
fill="#000000" stroke="none">
<path d="M224 6448 c-3 -4 -5 -1202 -5 -2662 0 -2325 2 -2662 15 -2719 51
-219 194 -389 396 -470 65 -26 85 -31 156 -43 53 -9 5287 -11 5391 -2 161 14
272 64 409 184 36 32 96 115 125 174 46 93 61 157 66 285 2 66 5 1030 6 2143
l2 2022 -1721 0 -1721 0 -313 523 c-172 287 -321 533 -330 547 l-18 24 -1227
1 c-675 0 -1229 -3 -1231 -7z m2346 -228 c5 -8 152 -253 328 -545 l318 -530
1672 -3 c1583 -2 1672 -3 1673 -20 5 -116 0 -3952 -6 -3987 -26 -180 -185
-340 -357 -362 -29 -3 -1254 -6 -2723 -6 l-2670 0 -64 22 c-147 51 -258 171
-292 316 -8 37 -11 706 -11 2570 0 1386 1 2529 1 2540 1 20 8 20 1062 20 920
-1 1062 -3 1069 -15z"/>
<path d="M3179 4415 c-11 -38 -29 -99 -39 -135 -11 -36 -33 -114 -51 -175 -17
-60 -34 -121 -38 -133 -4 -16 -29 -36 -71 -59 -36 -20 -76 -43 -89 -53 -23
-16 -33 -14 -294 52 -148 38 -271 67 -272 66 -4 -4 -141 -240 -168 -288 -10
-19 -43 -76 -73 -127 -30 -51 -54 -97 -54 -103 0 -6 56 -68 124 -138 68 -70
153 -158 189 -195 l65 -68 0 -107 0 -107 -193 -198 -192 -198 119 -207 c66
-114 131 -227 145 -252 14 -25 29 -49 33 -54 5 -4 128 22 277 58 l268 67 85
-50 c47 -28 88 -52 91 -53 3 -2 39 -122 81 -268 l75 -265 303 0 303 0 75 266
75 267 36 17 c20 9 60 32 89 52 44 29 58 33 85 27 18 -4 37 -9 42 -10 6 -1 39
-10 75 -19 36 -9 72 -18 80 -20 8 -2 79 -19 157 -39 78 -20 146 -36 152 -36 6
0 27 30 48 67 21 38 43 75 48 85 6 9 30 52 55 95 24 43 69 121 101 174 l56 96
-89 94 c-50 52 -137 141 -194 199 l-103 106 0 105 0 105 65 70 c36 38 122 126
190 195 68 69 124 131 124 138 0 7 -42 85 -94 174 -51 89 -106 185 -121 212
-23 41 -72 123 -80 132 -1 2 -123 -28 -271 -65 l-270 -69 -35 24 c-19 14 -59
37 -90 53 -43 22 -58 36 -63 57 -8 34 -89 316 -123 428 l-24 80 -300 0 -300 0
-20 -70z m456 -157 c4 -3 10 -21 15 -40 4 -18 29 -105 54 -193 25 -88 51 -178
57 -200 11 -38 17 -42 81 -69 57 -23 135 -70 233 -140 9 -7 93 10 253 50 238
60 239 60 252 40 38 -59 120 -206 120 -213 0 -4 -77 -87 -171 -183 l-170 -175
7 -65 c8 -76 8 -163 -2 -240 l-6 -55 52 -55 c28 -30 105 -110 171 -177 65 -67
119 -125 119 -129 0 -7 -118 -215 -128 -226 -4 -4 -115 20 -247 53 l-240 59
-40 -30 c-61 -46 -151 -98 -214 -124 l-56 -24 -61 -213 c-34 -118 -66 -226
-72 -241 l-10 -27 -134 0 -135 0 -69 241 -69 241 -69 28 c-63 25 -114 56 -206
123 l-35 25 -160 -40 c-88 -22 -169 -42 -180 -44 -11 -3 -47 -12 -80 -20 -55
-13 -61 -13 -73 3 -15 20 -122 208 -122 215 0 7 37 46 202 215 l139 143 -7 72
c-9 91 -9 135 -1 222 l8 70 -170 175 c-94 96 -170 178 -171 181 0 4 29 58 65
121 l66 115 232 -58 c127 -32 238 -58 246 -59 7 0 41 20 74 46 33 25 102 65
153 89 54 26 95 52 98 62 2 10 30 107 60 215 31 108 60 208 65 220 8 23 12 23
139 23 72 0 133 -3 137 -7z"/>
<path d="M3390 3375 c-90 -26 -144 -58 -203 -119 -166 -173 -164 -439 5 -609
173 -174 443 -174 617 0 234 236 130 630 -194 727 -55 17 -170 18 -225 1z
m181 -217 c117 -40 178 -175 129 -286 -40 -89 -106 -134 -199 -135 -232 -2
-302 316 -90 413 50 22 110 26 160 8z"/>
</g>
</svg>
